<svg width="20" height="20" viewBox="0 0 20 20" fill="none" xmlns="http://www.w3.org/2000/svg">
<g clip-path="url(#clip0_65_1878)">
<path d="M7.6276 4.507C8.68313 2.61346 9.21088 1.66669 9.99996 1.66669C10.789 1.66669 11.3168 2.61345 12.3723 4.507L12.6454 4.99688C12.9454 5.53496 13.0953 5.80401 13.3292 5.98153C13.563 6.15905 13.8542 6.22494 14.4367 6.35673L14.967 6.47671C17.0167 6.94049 18.0416 7.17237 18.2855 7.95646C18.5293 8.74052 17.8306 9.5576 16.4332 11.1916L16.0717 11.6144C15.6746 12.0787 15.476 12.3109 15.3867 12.5981C15.2975 12.8854 15.3275 13.1951 15.3875 13.8147L15.4421 14.3787C15.6534 16.5589 15.759 17.6489 15.1207 18.1335C14.4823 18.6181 13.5227 18.1763 11.6035 17.2927L11.107 17.064C10.5617 16.8129 10.289 16.6874 9.99996 16.6874C9.71088 16.6874 9.43821 16.8129 8.89288 17.064L8.39638 17.2927C6.47719 18.1763 5.51761 18.6181 4.87925 18.1335C4.24089 17.6489 4.34653 16.5589 4.55779 14.3787L4.61244 13.8147C4.67249 13.1951 4.7025 12.8854 4.61318 12.5981C4.52386 12.3109 4.32532 12.0787 3.92823 11.6144L3.56671 11.1916C2.16934 9.5576 1.47064 8.74052 1.71448 7.95646C1.95831 7.17237 2.98318 6.94049 5.03291 6.47671L5.5632 6.35673C6.14567 6.22494 6.4369 6.15905 6.67074 5.98153C6.90459 5.80401 7.05457 5.53497 7.35452 4.99688L7.6276 4.507Z" stroke="white" stroke-width="1.5"/>
</g>
<defs>
<clipPath id="clip0_65_1878">
<rect width="20" height="20" fill="white"/>
</clipPath>
</defs>
</svg>
